<?xml version="1.0" encoding="utf-8"?>
<!-- Generator: Adobe Illustrator 21.1.0, SVG Export Plug-In . SVG Version: 6.00 Build 0)  -->
<svg version="1.1" id="Icons" xmlns="http://www.w3.org/2000/svg" xmlns:xlink="http://www.w3.org/1999/xlink" x="0px" y="0px"
	 viewBox="0 0 48 48" style="enable-background:new 0 0 48 48;" xml:space="preserve">
<style type="text/css">
	.st0{fill:#FFE500;}
	.st1{fill:#FFA694;}
	.st2{fill:#FFF48C;}
	.st3{fill:none;stroke:#45413C;stroke-linecap:round;stroke-linejoin:round;stroke-miterlimit:10;}
	.st4{fill:#FF866E;}
	.st5{opacity:0.15;fill:#45413C;}
	.st6{fill:none;stroke:#45413C;stroke-linecap:round;stroke-miterlimit:10;}
	.st7{fill:#FF6242;}
	.st8{fill:#FFB0CA;stroke:#45413C;stroke-linecap:round;stroke-linejoin:round;stroke-miterlimit:10;}
	.st9{fill:#FF866E;stroke:#45413C;stroke-linecap:round;stroke-linejoin:round;stroke-miterlimit:10;}
	.st10{fill:#FFFFFF;stroke:#45413C;stroke-linecap:round;stroke-linejoin:round;stroke-miterlimit:10;}
	.st11{fill:#FFE500;stroke:#45413C;stroke-linecap:round;stroke-linejoin:round;stroke-miterlimit:10;}
	.st12{fill:#45413C;stroke:#45413C;stroke-linecap:round;stroke-linejoin:round;stroke-miterlimit:10;}
	.st13{fill:#00B8F0;}
	.st14{fill:#4ACFFF;}
	.st15{fill:#B89558;stroke:#45413C;stroke-linecap:round;stroke-linejoin:round;stroke-miterlimit:10;}
	.st16{fill:#B89558;}
	.st17{fill:#F7E5C6;}
	.st18{fill:#DEBB7E;}
	.st19{fill:#947746;stroke:#45413C;stroke-miterlimit:10;}
	.st20{fill:#FF866E;stroke:#45413C;stroke-miterlimit:10;}
	.st21{fill:#FFF5E3;stroke:#45413C;stroke-linecap:round;stroke-linejoin:round;stroke-miterlimit:10;}
	.st22{fill:#DEBB7E;stroke:#45413C;stroke-linecap:round;stroke-linejoin:round;stroke-miterlimit:10;}
	.st23{fill:#B89558;stroke:#45413C;stroke-miterlimit:10;}
	.st24{fill:#FFAA54;}
	.st25{fill:#724F3D;}
	.st26{fill:#A86C4D;}
	.st27{fill:#FFDA8F;}
	.st28{fill:#FFE9BD;}
	.st29{fill:#FFBE3D;}
	.st30{fill:#614B44;}
	.st31{fill:#947063;}
	.st32{fill:#D18660;}
	.st33{fill:#E09F7E;}
	.st34{fill:#BD704A;}
	.st35{fill:#FFDA8F;stroke:#45413C;stroke-linecap:round;stroke-linejoin:round;stroke-miterlimit:10;}
	.st36{fill:#D18660;stroke:#45413C;stroke-miterlimit:10;}
	.st37{fill:#DE926A;}
	.st38{fill:#FFCEBF;stroke:#45413C;stroke-linecap:round;stroke-linejoin:round;stroke-miterlimit:10;}
	.st39{fill:#FFB59E;}
	.st40{fill:#E0E0E0;}
	.st41{fill:#FFFFFF;}
	.st42{fill:#FFCEBF;}
	.st43{fill:#FFDCD1;}
	.st44{fill:#F0F0F0;stroke:#45413C;stroke-linecap:round;stroke-linejoin:round;stroke-miterlimit:10;}
	.st45{fill:#00DFEB;stroke:#45413C;stroke-linecap:round;stroke-linejoin:round;stroke-miterlimit:10;}
	.st46{fill:#EBCB00;}
	.st47{fill:#87898C;stroke:#45413C;stroke-linecap:round;stroke-linejoin:round;stroke-miterlimit:10;}
	.st48{fill:#C0DCEB;stroke:#45413C;stroke-linecap:round;stroke-linejoin:round;stroke-miterlimit:10;}
	.st49{fill:#E8F4FA;}
	.st50{fill:#80DDFF;}
	.st51{fill:#FF6196;}
	.st52{fill:#FF6196;stroke:#45413C;stroke-linecap:round;stroke-linejoin:round;stroke-miterlimit:10;}
	.st53{fill:#724F3D;stroke:#45413C;stroke-linecap:round;stroke-linejoin:round;stroke-miterlimit:10;}
	.st54{fill:#656769;stroke:#45413C;stroke-linecap:round;stroke-linejoin:round;stroke-miterlimit:10;}
	.st55{fill:#DAEDF7;stroke:#45413C;stroke-linecap:round;stroke-linejoin:round;stroke-miterlimit:10;}
	.st56{fill:#F0D5A8;}
	.st57{fill:#DAEDF7;}
	.st58{fill:#A86C4D;stroke:#45413C;stroke-linecap:round;stroke-linejoin:round;stroke-miterlimit:10;}
	.st59{fill:#FF6242;stroke:#45413C;stroke-linecap:round;stroke-linejoin:round;stroke-miterlimit:10;}
	.st60{fill:#009FD9;stroke:#45413C;stroke-linecap:round;stroke-linejoin:round;stroke-miterlimit:10;}
	.st61{fill:#656769;}
	.st62{fill:#525252;}
	.st63{fill:#525252;stroke:#45413C;stroke-linecap:round;stroke-linejoin:round;stroke-miterlimit:10;}
	.st64{fill:#6DD627;}
	.st65{fill:#009FD9;}
	.st66{fill:#ADC4D9;}
	.st67{fill:#C0DCEB;}
	.st68{fill:#FF8A14;}
	.st69{fill:#EB6D00;}
	.st70{fill:#00DBA8;stroke:#45413C;stroke-linecap:round;stroke-linejoin:round;stroke-miterlimit:10;}
	.st71{fill:#B8ECFF;}
	.st72{fill:#FF87AF;}
	.st73{fill:#80DDFF;stroke:#45413C;stroke-linecap:round;stroke-linejoin:round;stroke-miterlimit:10;}
	.st74{fill:#00DBA8;}
	.st75{fill:#00F5BC;}
	.st76{fill:#E5FEFF;stroke:#45413C;stroke-linecap:round;stroke-linejoin:round;stroke-miterlimit:10;}
	.st77{fill:#46B000;}
	.st78{fill:#46B000;stroke:#45413C;stroke-linecap:round;stroke-linejoin:round;stroke-miterlimit:10;}
	.st79{fill:#BF8256;stroke:#45413C;stroke-linecap:round;stroke-linejoin:round;stroke-miterlimit:10;}
	.st80{fill:#ADC4D9;stroke:#45413C;stroke-linecap:round;stroke-linejoin:round;stroke-miterlimit:10;}
	.st81{fill:#BDBEC0;}
	.st82{fill:#F0F0F0;}
	.st83{fill:#FFB59E;stroke:#45413C;stroke-linecap:round;stroke-linejoin:round;stroke-miterlimit:10;}
	.st84{fill:#45413C;}
	.st85{fill:#E04122;}
	.st86{fill:none;stroke:#48CF3E;stroke-linecap:round;stroke-linejoin:round;stroke-miterlimit:10;}
	.st87{fill:none;stroke:#FF4064;stroke-linecap:round;stroke-linejoin:round;stroke-miterlimit:10;}
	.st88{fill:none;stroke:#FFB700;stroke-linecap:round;stroke-linejoin:round;stroke-miterlimit:10;}
	.st89{fill:#BF8DF2;}
	.st90{fill:#9F5AE5;}
	.st91{fill:#00AD85;}
	.st92{fill:#8CA4B8;}
	.st93{fill:#627B8C;}
	.st94{fill:#627B8C;stroke:#45413C;stroke-linecap:round;stroke-linejoin:round;stroke-miterlimit:10;}
	.st95{fill:#87898C;}
	.st96{fill:#FF8A14;stroke:#45413C;stroke-linecap:round;stroke-linejoin:round;stroke-miterlimit:10;}
	.st97{fill:#E04122;stroke:#45413C;stroke-linecap:round;stroke-linejoin:round;stroke-miterlimit:10;}
	.st98{fill:#EBCB00;stroke:#45413C;stroke-linecap:round;stroke-linejoin:round;stroke-miterlimit:10;}
	.st99{fill:#6DD627;stroke:#45413C;stroke-linecap:round;stroke-linejoin:round;stroke-miterlimit:10;}
	.st100{fill:#FFB0CA;}
	.st101{fill:#FFB59E;stroke:#FFAA54;stroke-miterlimit:10;}
	.st102{fill:#FF87AF;stroke:#45413C;stroke-linecap:round;stroke-linejoin:round;stroke-miterlimit:10;}
</style>
<g>
	<g>
		<path id="XMLID_3855_" class="st54" d="M23.5,17.3l-15-7.6C8.2,9.5,8.2,9,8.6,8.8l15-7.7c0.3-0.1,0.6-0.1,0.9,0l15,7.7
			c0.4,0.2,0.4,0.7,0,0.9l-15,7.6C24.2,17.5,23.8,17.5,23.5,17.3z"/>
		<line id="XMLID_3854_" class="st3" x1="8.3" y1="9.2" x2="8.3" y2="17.2"/>
		<path id="XMLID_3853_" class="st11" d="M9.3,17.2c0-0.6-0.4-1.1-1-1.1c-0.5,0-1,0.5-1,1.1l-0.2,3.7h2.3L9.3,17.2z"/>
	</g>
	<g>
		<path class="st61" d="M31.5,34.1L24,31.2l-7.5,2.9c-2.6,1-4.3,3.5-4.3,6.3V45h23.8v-4.6C35.9,37.6,34.2,35.1,31.5,34.1z"/>
		<path class="st62" d="M31.5,34.1L24,31.2l-7.5,2.9c-2.6,1-4.3,3.5-4.3,6.3v3c0-2.8,1.7-5.3,4.3-6.3l7.5-2.9l7.5,2.9
			c2.6,1,4.3,3.5,4.3,6.3v-3C35.9,37.6,34.2,35.1,31.5,34.1z"/>
		<path class="st3" d="M31.5,34.1L24,31.2l-7.5,2.9c-2.6,1-4.3,3.5-4.3,6.3V45h23.8v-4.6C35.9,37.6,34.2,35.1,31.5,34.1z"/>
		<path id="XMLID_3852_" class="st42" d="M24,35.1L24,35.1c0,0-2.5-1.1-2.5-2.5v-2.8c0-1.4,1.1-2.5,2.5-2.5h0c1.4,0,2.5,1.1,2.5,2.5
			v2.8C26.5,34,24,35.1,24,35.1z"/>
		<path id="XMLID_3851_" class="st39" d="M24,27.2c-1.4,0-2.5,1.1-2.5,2.5v0.6c0,1.4,1.1,2.5,2.5,2.5c1.4,0,2.5-1.1,2.5-2.5v-0.6
			C26.5,28.3,25.4,27.2,24,27.2z"/>
		<path id="XMLID_3850_" class="st3" d="M24,35.1L24,35.1c0,0-2.5-1.1-2.5-2.5v-2.8c0-1.4,1.1-2.5,2.5-2.5h0c1.4,0,2.5,1.1,2.5,2.5
			v2.8C26.5,34,24,35.1,24,35.1z"/>
		<line id="XMLID_3849_" class="st3" x1="13.5" y1="36.4" x2="17.1" y2="45"/>
		<line id="XMLID_3848_" class="st3" x1="34.5" y1="36.4" x2="30.9" y2="45"/>
		<line id="XMLID_3847_" class="st3" x1="20.5" y1="40.5" x2="21.3" y2="45"/>
		<line id="XMLID_3846_" class="st3" x1="27.5" y1="40.5" x2="26.7" y2="45"/>
	</g>
	<ellipse id="XMLID_3845_" class="st5" cx="24" cy="45.5" rx="15" ry="1.5"/>
	<g>
		<path id="XMLID_3524_" class="st58" d="M24,6.9L24,6.9c-5.4,0-9.8,4.4-9.8,9.8v5.1h19.6v-5.1C33.8,11.3,29.4,6.9,24,6.9z"/>
		<g>
			<path class="st38" d="M34.9,21.1c-0.1-0.7-0.7-1.3-1.4-1.5l-0.6-0.2c-0.9-0.2-1.5-1.1-1.5-2v-2.1c0-0.9-0.6-1.6-1.4-1.8
				c-1.6,0.7-3.7,1.1-6,1.1s-4.4-0.4-6-1.1c-0.8,0.2-1.4,0.9-1.4,1.8v2.1c0,0.9-0.6,1.7-1.5,2l-0.6,0.2c-0.7,0.2-1.3,0.8-1.4,1.5
				c-0.1,1.1,0.8,2,1.8,2c0,0,0.1,0,0.1,0c0.7,4.4,4.4,7.7,9,7.7s8.3-3.4,9-7.7c0,0,0.1,0,0.1,0C34.1,23.1,35,22.2,34.9,21.1z"/>
		</g>
		<circle id="XMLID_3523_" class="st12" cx="19.3" cy="20.9" r="0.8"/>
		<circle id="XMLID_3522_" class="st12" cx="28.7" cy="20.9" r="0.8"/>
		<g id="XMLID_3513_">
			<g id="XMLID_3514_">
				<g id="XMLID_3515_">
					<g id="XMLID_3516_">
						<g id="XMLID_3517_">
							<g id="XMLID_3518_">
								<g id="XMLID_3519_">
									<path id="XMLID_3521_" class="st7" d="M21.2,25.6c-0.1,0-0.3,0.1-0.3,0.2c-0.1,0.1-0.1,0.2-0.1,0.4
										c0.2,1.6,1.6,2.8,3.3,2.8c1.7,0,3-1.2,3.3-2.8c0-0.1,0-0.3-0.1-0.4c-0.1-0.1-0.2-0.2-0.3-0.2H21.2z"/>
									<path id="XMLID_3520_" class="st1" d="M24,27c-1,0-1.9,0.3-2.5,0.8c0.6,0.7,1.5,1.1,2.5,1.1s1.9-0.4,2.5-1.1
										C25.9,27.3,25,27,24,27z"/>
								</g>
							</g>
						</g>
					</g>
				</g>
			</g>
		</g>
		<g id="XMLID_3511_">
			<path id="XMLID_3512_" class="st3" d="M21.2,25.6c-0.1,0-0.3,0.1-0.3,0.2c-0.1,0.1-0.1,0.2-0.1,0.4c0.2,1.6,1.6,2.8,3.3,2.8
				c1.7,0,3-1.2,3.3-2.8c0-0.1,0-0.3-0.1-0.4c-0.1-0.1-0.2-0.2-0.3-0.2H21.2z"/>
		</g>
		<ellipse id="XMLID_3510_" class="st39" cx="18.1" cy="24.2" rx="1" ry="0.6"/>
		<ellipse id="XMLID_3509_" class="st39" cx="29.9" cy="24.2" rx="1" ry="0.6"/>
	</g>
	<path id="XMLID_3508_" class="st61" d="M14.7,9c0-1.2,3.9-2.2,9.3-2.2s9.3,1,9.3,2.2l1,8.6c0-1.3-4.6-2.3-10.3-2.3
		s-10.3,1-10.3,2.3L14.7,9z"/>
	<path id="XMLID_3501_" class="st62" d="M24,10.1c4.6,0,8.2,0.6,9.6,1.4L33.3,9c0-1.2-3.9-2.2-9.3-2.2c-5.4,0-9.3,1-9.3,2.2
		l-0.3,2.5C15.8,10.7,19.4,10.1,24,10.1z"/>
	<path id="XMLID_3500_" class="st3" d="M14.7,9c0-1.2,3.9-2.2,9.3-2.2s9.3,1,9.3,2.2l1,8.6c0-1.3-4.6-2.3-10.3-2.3s-10.3,1-10.3,2.3
		L14.7,9z"/>
</g>
</svg>
