<svg id="wave" style="transform:rotate(0deg); transition: 0.3s" viewBox="0 0 1440 490" version="1.1" xmlns="http://www.w3.org/2000/svg"><defs><linearGradient id="sw-gradient-0" x1="0" x2="0" y1="1" y2="0"><stop stop-color="rgba(151, 142, 139, 1)" offset="0%"></stop><stop stop-color="rgba(217, 213, 206, 1)" offset="100%"></stop></linearGradient></defs><path style="transform:translate(0, 0px); opacity:1" fill="url(#sw-gradient-0)" d="M0,392L60,334.8C120,278,240,163,360,122.5C480,82,600,114,720,138.8C840,163,960,180,1080,171.5C1200,163,1320,131,1440,171.5C1560,212,1680,327,1800,310.3C1920,294,2040,147,2160,114.3C2280,82,2400,163,2520,187.8C2640,212,2760,180,2880,138.8C3000,98,3120,49,3240,57.2C3360,65,3480,131,3600,163.3C3720,196,3840,196,3960,220.5C4080,245,4200,294,4320,294C4440,294,4560,245,4680,253.2C4800,261,4920,327,5040,326.7C5160,327,5280,261,5400,261.3C5520,261,5640,327,5760,334.8C5880,343,6000,294,6120,228.7C6240,163,6360,82,6480,73.5C6600,65,6720,131,6840,196C6960,261,7080,327,7200,367.5C7320,408,7440,425,7560,367.5C7680,310,7800,180,7920,147C8040,114,8160,180,8280,187.8C8400,196,8520,147,8580,122.5L8640,98L8640,490L8580,490C8520,490,8400,490,8280,490C8160,490,8040,490,7920,490C7800,490,7680,490,7560,490C7440,490,7320,490,7200,490C7080,490,6960,490,6840,490C6720,490,6600,490,6480,490C6360,490,6240,490,6120,490C6000,490,5880,490,5760,490C5640,490,5520,490,5400,490C5280,490,5160,490,5040,490C4920,490,4800,490,4680,490C4560,490,4440,490,4320,490C4200,490,4080,490,3960,490C3840,490,3720,490,3600,490C3480,490,3360,490,3240,490C3120,490,3000,490,2880,490C2760,490,2640,490,2520,490C2400,490,2280,490,2160,490C2040,490,1920,490,1800,490C1680,490,1560,490,1440,490C1320,490,1200,490,1080,490C960,490,840,490,720,490C600,490,480,490,360,490C240,490,120,490,60,490L0,490Z"></path></svg>