<svg id="wave" style="transform:rotate(0deg); transition: 0.3s" viewBox="0 0 1440 490" version="1.1" xmlns="http://www.w3.org/2000/svg"><defs><linearGradient id="sw-gradient-0" x1="0" x2="0" y1="1" y2="0"><stop stop-color="rgba(171.129, 162.178, 155.523, 1)" offset="0%"></stop><stop stop-color="rgba(234.879, 234.879, 234.879, 1)" offset="100%"></stop></linearGradient></defs><path style="transform:translate(0, 0px); opacity:1" fill="url(#sw-gradient-0)" d="M0,392L60,343C120,294,240,196,360,204.2C480,212,600,327,720,318.5C840,310,960,180,1080,130.7C1200,82,1320,114,1440,163.3C1560,212,1680,278,1800,253.2C1920,229,2040,114,2160,65.3C2280,16,2400,33,2520,32.7C2640,33,2760,16,2880,32.7C3000,49,3120,98,3240,171.5C3360,245,3480,343,3600,375.7C3720,408,3840,376,3960,326.7C4080,278,4200,212,4320,187.8C4440,163,4560,180,4680,155.2C4800,131,4920,65,5040,32.7C5160,0,5280,0,5400,0C5520,0,5640,0,5760,24.5C5880,49,6000,98,6120,106.2C6240,114,6360,82,6480,106.2C6600,131,6720,212,6840,220.5C6960,229,7080,163,7200,163.3C7320,163,7440,229,7560,236.8C7680,245,7800,196,7920,187.8C8040,180,8160,212,8280,245C8400,278,8520,310,8580,326.7L8640,343L8640,490L8580,490C8520,490,8400,490,8280,490C8160,490,8040,490,7920,490C7800,490,7680,490,7560,490C7440,490,7320,490,7200,490C7080,490,6960,490,6840,490C6720,490,6600,490,6480,490C6360,490,6240,490,6120,490C6000,490,5880,490,5760,490C5640,490,5520,490,5400,490C5280,490,5160,490,5040,490C4920,490,4800,490,4680,490C4560,490,4440,490,4320,490C4200,490,4080,490,3960,490C3840,490,3720,490,3600,490C3480,490,3360,490,3240,490C3120,490,3000,490,2880,490C2760,490,2640,490,2520,490C2400,490,2280,490,2160,490C2040,490,1920,490,1800,490C1680,490,1560,490,1440,490C1320,490,1200,490,1080,490C960,490,840,490,720,490C600,490,480,490,360,490C240,490,120,490,60,490L0,490Z"></path></svg>
